name Walk7.mot
datacolumns 19
datarows 15
range 1.15000000 1.16400000
endheader

                time	   L_ground_force_vx	   L_ground_force_vy	   L_ground_force_vz	   L_ground_force_px	   L_ground_force_py	   L_ground_force_pz	   R_ground_force_vx	   R_ground_force_vy	   R_ground_force_vz	   R_ground_force_px	   R_ground_force_py	   R_ground_force_pz	   L_ground_torque_x	   L_ground_torque_y	   L_ground_torque_z	   R_ground_torque_x	   R_ground_torque_y	   R_ground_torque_z	
          1.15000000	          0.00000000	          0.00000000	          0.00000000	          0.00000000	          0.00000000	          0.00000000	          0.00000000	          0.00000000	          0.00000000	          0.00000000	          0.00000000	          0.00000000	          0.00000000	          0.00000000	          0.00000000	          0.00000000	          0.00000000	          0.00000000	
          1.15100000	          0.00000000	          0.00000000	          0.00000000	          0.00000000	          0.00000000	          0.00000000	          0.00000000	          0.00000000	          0.00000000	          0.00000000	          0.00000000	          0.00000000	          0.00000000	          0.00000000	          0.00000000	          0.00000000	          0.00000000	          0.00000000	
          1.15200000	          0.00000000	          0.00000000	          0.00000000	          0.00000000	          0.00000000	          0.00000000	          0.00000000	          0.00000000	          0.00000000	          0.00000000	          0.00000000	          0.00000000	          0.00000000	          0.00000000	          0.00000000	          0.00000000	          0.00000000	          0.00000000	
          1.15300000	          0.00000000	          0.00000000	          0.00000000	          0.00000000	          0.00000000	          0.00000000	          0.00000000	          0.00000000	          0.00000000	          0.00000000	          0.00000000	          0.00000000	          0.00000000	          0.00000000	          0.00000000	          0.00000000	          0.00000000	          0.00000000	
          1.15400000	          0.00000000	          0.00000000	          0.00000000	          0.00000000	          0.00000000	          0.00000000	          0.00000000	          0.00000000	          0.00000000	          0.00000000	          0.00000000	          0.00000000	          0.00000000	          0.00000000	          0.00000000	          0.00000000	          0.00000000	          0.00000000	
          1.15500000	          0.00000000	          0.00000000	          0.00000000	          0.00000000	          0.00000000	          0.00000000	          0.00000000	          0.00000000	          0.00000000	          0.00000000	          0.00000000	          0.00000000	          0.00000000	          0.00000000	          0.00000000	          0.00000000	          0.00000000	          0.00000000	
          1.15600000	          0.00000000	          0.00000000	          0.00000000	          0.00000000	          0.00000000	          0.00000000	          0.00000000	          0.00000000	          0.00000000	          0.00000000	          0.00000000	          0.00000000	          0.00000000	          0.00000000	          0.00000000	          0.00000000	          0.00000000	          0.00000000	
          1.15700000	         -0.05878054	          9.31134627	         -0.22557410	         -0.45951021	          0.00000000	         -0.04199962	          0.00000000	          0.00000000	          0.00000000	          0.00000000	          0.00000000	          0.00000000	          0.00000000	          0.03489762	          0.00000000	          0.00000000	          0.00000000	          0.00000000	
          1.15800000	         -0.10483234	         22.10489972	         -0.26134705	         -0.45526721	          0.00000000	         -0.04047719	          0.00000000	          0.00000000	          0.00000000	          0.00000000	          0.00000000	          0.00000000	          0.00000000	          0.05554848	          0.00000000	          0.00000000	          0.00000000	          0.00000000	
          1.15900000	         -0.13028540	         40.57611943	         -0.21885570	         -0.45296970	          0.00000000	         -0.03922167	          0.00000000	          0.00000000	          0.00000000	          0.00000000	          0.00000000	          0.00000000	          0.00000000	          0.07484227	          0.00000000	          0.00000000	          0.00000000	          0.00000000	
          1.16000000	         -0.07498834	         64.99184134	         -0.08657475	         -0.45135829	          0.00000000	         -0.03777455	          0.00000000	          0.00000000	          0.00000000	          0.00000000	          0.00000000	          0.00000000	          0.00000000	          0.08867093	          0.00000000	          0.00000000	          0.00000000	          0.00000000	
          1.16100000	          0.12825856	         95.15392903	          0.09642500	         -0.45019203	          0.00000000	         -0.03627655	          0.00000000	          0.00000000	          0.00000000	          0.00000000	          0.00000000	          0.00000000	          0.00000000	          0.09819685	          0.00000000	          0.00000000	          0.00000000	          0.00000000	
          1.16200000	          0.51449821	        129.80128510	          0.23915463	         -0.44933137	          0.00000000	         -0.03497897	          0.00000000	          0.00000000	          0.00000000	          0.00000000	          0.00000000	          0.00000000	          0.00000000	          0.11020396	          0.00000000	          0.00000000	          0.00000000	          0.00000000	
          1.16300000	          1.04360090	        166.34453170	          0.21123462	         -0.44865540	          0.00000000	         -0.03399064	          0.00000000	          0.00000000	          0.00000000	          0.00000000	          0.00000000	          0.00000000	          0.00000000	          0.13131376	          0.00000000	          0.00000000	          0.00000000	          0.00000000	
          1.16400000	          1.56605882	        201.31590644	         -0.12503175	         -0.44812985	          0.00000000	         -0.03330547	          0.00000000	          0.00000000	          0.00000000	          0.00000000	          0.00000000	          0.00000000	          0.00000000	          0.16107782	          0.00000000	          0.00000000	          0.00000000	          0.00000000	
